<?xml version="1.0" standalone="no"?><!DOCTYPE svg PUBLIC "-//W3C//DTD SVG 1.1//EN" "http://www.w3.org/Graphics/SVG/1.1/DTD/svg11.dtd"><svg t="1546159541414" class="icon" style="" viewBox="0 0 1024 1024" version="1.1" xmlns="http://www.w3.org/2000/svg" p-id="3343" xmlns:xlink="http://www.w3.org/1999/xlink" width="200" height="200"><defs><style type="text/css"></style></defs><path d="M934.4 469.333333c0-4.693333-2.56-9.386667-3.84-14.08a177.92 177.92 0 0 0-7.68-24.32c-2.133333-5.12-5.12-10.24-7.68-15.786666s-6.4-12.8-10.24-18.773334S896 387.413333 896 384s-8.533333-10.666667-13.226667-15.786667-8.96-8.533333-13.653333-12.8L853.333333 341.333333l-15.36-10.24a157.013333 157.013333 0 0 0-18.773333-9.813333l-16.64-7.68a176.213333 176.213333 0 0 0-21.333333-6.4 128 128 0 0 0-17.493334-3.84h-7.68A256 256 0 0 0 270.08 298.666667h-7.68a128 128 0 0 0-17.493333 3.84 176.213333 176.213333 0 0 0-21.333334 6.4l-16.64 7.68a157.013333 157.013333 0 0 0-18.773333 9.813333L172.8 341.333333l-15.786667 13.226667c-4.693333 4.266667-9.386667 8.106667-13.653333 12.8s-8.96 10.666667-13.226667 15.786667-7.68 9.813333-11.093333 15.36-6.826667 12.373333-10.24 18.773333-5.546667 10.666667-7.68 15.786667a177.92 177.92 0 0 0-7.68 24.32c0 4.693333-2.986667 9.386667-3.84 14.08A223.146667 223.146667 0 0 0 85.333333 512a234.666667 234.666667 0 0 0 3.84 38.826667c0 4.266667 2.133333 8.106667 2.986667 12.373333a238.08 238.08 0 0 0 7.68 24.746667l5.12 12.373333a213.333333 213.333333 0 0 0 12.8 23.893333l5.973333 9.386667a23.893333 23.893333 0 0 0 2.133334 3.413333L128 640a213.333333 213.333333 0 0 0 170.666667 85.333333 85.333333 85.333333 0 0 1 25.173333-60.16A85.333333 85.333333 0 0 1 384 640a81.92 81.92 0 0 1 42.666667 11.52V512a85.333333 85.333333 0 0 1 170.666666 0v143.786667a85.333333 85.333333 0 0 1 42.666667-11.52 87.466667 87.466667 0 0 1 61.44 26.026666A85.333333 85.333333 0 0 1 725.333333 725.333333a213.333333 213.333333 0 0 0 170.666667-85.333333l2.133333-2.133333a23.893333 23.893333 0 0 0 2.133334-3.413334l5.973333-9.386666a213.333333 213.333333 0 0 0 12.8-23.893334l5.12-12.373333a238.08 238.08 0 0 0 7.68-24.746667c0-4.266667 2.133333-8.106667 2.986667-12.373333A234.666667 234.666667 0 0 0 938.666667 512a223.146667 223.146667 0 0 0-4.266667-42.666667z" p-id="3344"></path><path d="M610.56 698.88L554.666667 752.64V512a42.666667 42.666667 0 0 0-85.333334 0v238.506667l-55.04-55.466667a42.666667 42.666667 0 0 0-60.586666 60.586667l128 128A42.666667 42.666667 0 0 0 512 896a42.666667 42.666667 0 0 0 29.44-11.946667l128-123.733333a42.666667 42.666667 0 1 0-58.88-61.44z" p-id="3345"></path><path d="M934.4 469.333333c0-4.693333-2.56-9.386667-3.84-14.08a177.92 177.92 0 0 0-7.68-24.32c-2.133333-5.12-5.12-10.24-7.68-15.786666s-6.4-12.8-10.24-18.773334S896 387.413333 896 384s-8.533333-10.666667-13.226667-15.786667-8.96-8.533333-13.653333-12.8L853.333333 341.333333l-15.36-10.24a157.013333 157.013333 0 0 0-18.773333-9.813333l-16.64-7.68a176.213333 176.213333 0 0 0-21.333333-6.4 128 128 0 0 0-17.493334-3.84h-7.68A256 256 0 0 0 270.08 298.666667h-7.68a128 128 0 0 0-17.493333 3.84 176.213333 176.213333 0 0 0-21.333334 6.4l-16.64 7.68a157.013333 157.013333 0 0 0-18.773333 9.813333L172.8 341.333333l-15.786667 13.226667c-4.693333 4.266667-9.386667 8.106667-13.653333 12.8s-8.96 10.666667-13.226667 15.786667-7.68 9.813333-11.093333 15.36-6.826667 12.373333-10.24 18.773333-5.546667 10.666667-7.68 15.786667a177.92 177.92 0 0 0-7.68 24.32c0 4.693333-2.986667 9.386667-3.84 14.08A223.146667 223.146667 0 0 0 85.333333 512a234.666667 234.666667 0 0 0 3.84 38.826667c0 4.266667 2.133333 8.106667 2.986667 12.373333a238.08 238.08 0 0 0 7.68 24.746667l5.12 12.373333a213.333333 213.333333 0 0 0 12.8 23.893333l5.973333 9.386667a23.893333 23.893333 0 0 0 2.133334 3.413333L128 640a213.333333 213.333333 0 0 0 170.666667 85.333333 85.333333 85.333333 0 0 1 25.173333-60.16A85.333333 85.333333 0 0 1 384 640a81.92 81.92 0 0 1 42.666667 11.52V512a85.333333 85.333333 0 0 1 170.666666 0v143.786667a85.333333 85.333333 0 0 1 42.666667-11.52 87.466667 87.466667 0 0 1 61.44 26.026666A85.333333 85.333333 0 0 1 725.333333 725.333333a213.333333 213.333333 0 0 0 170.666667-85.333333l2.133333-2.133333a23.893333 23.893333 0 0 0 2.133334-3.413334l5.973333-9.386666a213.333333 213.333333 0 0 0 12.8-23.893334l5.12-12.373333a238.08 238.08 0 0 0 7.68-24.746667c0-4.266667 2.133333-8.106667 2.986667-12.373333A234.666667 234.666667 0 0 0 938.666667 512a223.146667 223.146667 0 0 0-4.266667-42.666667z" p-id="3346"></path><path d="M610.56 698.88L554.666667 752.64V512a42.666667 42.666667 0 0 0-85.333334 0v238.506667l-55.04-55.466667a42.666667 42.666667 0 0 0-60.586666 60.586667l128 128A42.666667 42.666667 0 0 0 512 896a42.666667 42.666667 0 0 0 29.44-11.946667l128-123.733333a42.666667 42.666667 0 1 0-58.88-61.44z" p-id="3347"></path></svg>