<?xml version="1.0" standalone="no"?><!DOCTYPE svg PUBLIC "-//W3C//DTD SVG 1.1//EN" "http://www.w3.org/Graphics/SVG/1.1/DTD/svg11.dtd"><svg t="1546311994529" class="icon" style="" viewBox="0 0 1024 1024" version="1.1" xmlns="http://www.w3.org/2000/svg" p-id="8003" xmlns:xlink="http://www.w3.org/1999/xlink" width="200" height="200"><defs><style type="text/css"></style></defs><path d="M803.271111 93.297778h-591.644444c-50.062222 0-91.022222 40.96-91.022223 91.022222v682.666667c0 50.062222 40.96 91.022222 91.022223 91.022222h591.644444c50.062222 0 91.022222-40.96 91.022222-91.022222v-682.666667c0-50.062222-40.96-91.022222-91.022222-91.022222z m-525.653333 220.728889h236.657778c13.653333 0 22.755556 9.102222 22.755555 22.755555s-9.102222 22.755556-22.755555 22.755556H277.617778c-13.653333 0-22.755556-9.102222-22.755556-22.755556s9.102222-22.755556 22.755556-22.755555z m452.835555 400.497777H277.617778c-13.653333 0-22.755556-9.102222-22.755556-22.755555s9.102222-22.755556 22.755556-22.755556h452.835555c13.653333 0 22.755556 9.102222 22.755556 22.755556s-9.102222 22.755556-22.755556 22.755555z m6.826667-177.493333H277.617778c-13.653333 0-22.755556-9.102222-22.755556-22.755555s9.102222-22.755556 22.755556-22.755556h461.937778c13.653333 0 22.755556 9.102222 22.755555 22.755556s-11.377778 22.755556-25.031111 22.755555z" fill="" p-id="8004"></path></svg>