<?xml version="1.0" standalone="no"?><!DOCTYPE svg PUBLIC "-//W3C//DTD SVG 1.1//EN" "http://www.w3.org/Graphics/SVG/1.1/DTD/svg11.dtd"><svg t="1593778378059" class="icon" viewBox="0 0 1024 1024" version="1.1" xmlns="http://www.w3.org/2000/svg" p-id="3724" xmlns:xlink="http://www.w3.org/1999/xlink" width="200" height="200"><defs><style type="text/css"></style></defs><path d="M640 288a64 64 0 1 1 0.032-128.032A64 64 0 0 1 640 288z m123.456-96c-14.304-55.04-64-96-123.456-96s-109.152 40.96-123.456 96H128v64h388.544c14.304 55.04 64 96 123.456 96s109.152-40.96 123.456-96H896V192h-132.544zM640 864a64 64 0 1 1 0.032-128.032A64 64 0 0 1 640 864m0-192c-59.456 0-109.152 40.96-123.456 96H128v64h388.544c14.304 55.04 64 96 123.456 96s109.152-40.96 123.456-96H896v-64h-132.544c-14.304-55.04-64-96-123.456-96M384 576a64 64 0 1 1 0.032-128.032A64 64 0 0 1 384 576m0-192c-59.456 0-109.152 40.96-123.456 96H128v64h132.544c14.304 55.04 64 96 123.456 96s109.152-40.96 123.456-96H896v-64H507.456c-14.304-55.04-64-96-123.456-96" fill="#ffffff" p-id="3725"></path></svg>