<?xml version="1.0" standalone="no"?><!DOCTYPE svg PUBLIC "-//W3C//DTD SVG 1.1//EN" "http://www.w3.org/Graphics/SVG/1.1/DTD/svg11.dtd"><svg t="1593778301440" class="icon" viewBox="0 0 1024 1024" version="1.1" xmlns="http://www.w3.org/2000/svg" p-id="3564" xmlns:xlink="http://www.w3.org/1999/xlink" width="200" height="200"><defs><style type="text/css"></style></defs><path d="M768 832a64 64 0 1 1 0.032-128.032A64 64 0 0 1 768 832m-448-64a64 64 0 1 1-128.032-0.032A64 64 0 0 1 320 768m128-512a64 64 0 1 1 128.032 0.032A64 64 0 0 1 448 256m352 388.544V480h-256v-100.544c55.072-14.304 96-64 96-123.456 0-70.592-57.44-128-128-128-70.592 0-128 57.408-128 128 0 59.456 40.928 109.152 96 123.456V480H224V644.544c-55.072 14.304-96 64-96 123.456 0 70.592 57.408 128 128 128 70.56 0 128-57.408 128-128 0-59.456-40.928-109.152-96-123.456V544h448v100.544c-55.072 14.304-96 64-96 123.456 0 70.592 57.408 128 128 128 70.56 0 128-57.408 128-128 0-59.456-40.928-109.152-96-123.456" fill="#ffffff" p-id="3565"></path></svg>