<?xml version="1.0" standalone="no"?><!DOCTYPE svg PUBLIC "-//W3C//DTD SVG 1.1//EN" "http://www.w3.org/Graphics/SVG/1.1/DTD/svg11.dtd"><svg t="1544856478920" class="icon" style="" viewBox="0 0 1024 1024" version="1.1" xmlns="http://www.w3.org/2000/svg" p-id="8946" xmlns:xlink="http://www.w3.org/1999/xlink" width="200" height="200"><defs><style type="text/css"></style></defs><path d="M854.2208 110.7968 164.1472 110.7968c-72.4992 0-131.1744 58.7776-131.1744 131.1744l0 506.7776c0 72.4992 58.7776 131.1744 131.1744 131.1744l690.0736 0c72.4992 0 131.1744-58.7776 131.1744-131.1744L985.3952 241.9712C985.3952 169.5744 926.72 110.7968 854.2208 110.7968zM301.6704 278.9376c36.864 0 66.7648 29.9008 66.7648 66.7648s-29.9008 66.7648-66.7648 66.7648-66.7648-29.9008-66.7648-66.7648S264.8064 278.9376 301.6704 278.9376zM919.2448 638.1568c-8.6016 6.656-20.992 4.9152-27.5456-3.6864L744.5504 440.1152c-0.4096-0.6144-41.472-53.248-91.3408-48.2304-40.5504 4.608-80.384 47.8208-115.2 125.0304-36.864 82.0224-73.0112 124.8256-113.664 134.8608-46.08 11.1616-85.8112-20.0704-127.8976-53.3504l-5.3248-4.1984c-49.2544-38.6048-72.8064-29.7984-167.6288 63.0784-3.7888 3.7888-8.8064 5.632-13.7216 5.632-5.12 0-10.24-1.9456-14.0288-5.9392-7.5776-7.7824-7.4752-20.2752 0.3072-27.8528C182.1696 544.768 234.8032 500.0192 315.392 563.3024l5.4272 4.1984c35.9424 28.3648 66.9696 52.8384 94.208 46.08 27.136-6.656 56.4224-44.544 87.1424-112.7424 41.472-92.0576 90.8288-141.9264 146.944-148.0704 72.192-7.68 124.7232 60.7232 126.8736 63.6928l146.944 194.1504C929.4848 619.3152 927.8464 631.6032 919.2448 638.1568z" p-id="8947"></path></svg>