<?xml version="1.0" standalone="no"?><!DOCTYPE svg PUBLIC "-//W3C//DTD SVG 1.1//EN" "http://www.w3.org/Graphics/SVG/1.1/DTD/svg11.dtd"><svg t="1544583607432" class="icon" style="" viewBox="0 0 1024 1024" version="1.1" xmlns="http://www.w3.org/2000/svg" p-id="11674" xmlns:xlink="http://www.w3.org/1999/xlink" width="200" height="200"><defs><style type="text/css"></style></defs><path d="M853.161077 892.549156 362.595248 892.549156l-209.432916-0.413416c-0.605797-0.001023-1.210571-0.031722-1.813299-0.092098-24.848944-2.484587-47.825238-14.060227-64.696488-32.594349-16.990976-18.665105-26.349111-42.85504-26.349111-68.112284L60.303434 264.62596c0-55.80805 45.403073-101.211123 101.211123-101.211123l691.645496 0c55.80805 0 101.2101 45.403073 101.2101 101.211123l0 225.51315c0 0.275269-0.00614 0.551562-0.01842 0.825808-0.021489 0.494257-1.971911 51.723012 15.481599 85.46244 4.716418 9.118682 1.14815 20.335141-7.970532 25.052582-9.116635 4.714372-20.335141 1.149173-25.052582-7.970532-21.300119-41.176818-19.844977-97.642854-19.618826-103.738689L917.191392 264.62596c0-35.307134-28.724205-64.031339-64.031339-64.031339L161.51558 200.594621c-35.307134 0-64.031339 28.724205-64.031339 64.031339l0 526.71105c0 32.755008 24.320918 59.957557 56.717769 63.61997l208.4311 0.412392 490.528989 0c35.307134 0 64.031339-28.725228 64.031339-64.032362l-0.382717-93.676519c-0.104377-1.749854-1.587148-19.548218-19.549242-42.499953-0.050142-0.063445-0.098237-0.125867-0.147356-0.190335L875.401614 626.481358 758.174726 471.362464c-0.415462-0.550539-38.995129-50.852178-86.271876-45.534056-38.335097 4.314259-75.954903 45.163619-108.789729 118.131491-17.615193 39.141462-34.650171 68.26885-52.082192 89.046059-17.607006 20.985964-35.679617 33.519418-55.251372 38.316677-43.422975 10.638291-81.049944-18.99461-120.886231-50.372248l-5.057179-3.980661c-46.555315-36.57808-68.750827-28.223808-158.330028 59.60247-7.330966 7.187703-19.101033 7.071046-26.288736-0.25992-7.187703-7.330966-7.071046-19.101033 0.25992-26.287713 46.658669-45.74588 77.544097-72.726372 107.085924-84.282568 33.357735-13.048177 64.274886-6.266727 100.242052 21.99392l5.092995 4.00829c33.9226 26.719548 63.219857 49.795103 89.028663 43.466977 25.618471-6.279007 53.30095-42.114167 82.279958-106.508779 39.139415-86.97591 85.837994-134.027529 138.79716-139.849118 68.454068-7.515161 117.823476 57.404408 119.891578 60.171428l117.122511 154.980747 21.599947 28.343535c26.276457 33.630958 27.333532 61.638849 27.367301 64.72514 0.001023 0.042979 0.001023 0.084934 0.001023 0.127913l0.38374 94.059236C954.371176 847.146083 908.969127 892.549156 853.161077 892.549156z" p-id="11675"></path><path d="M312.328401 446.967868c-42.324968 0-76.759221-34.434254-76.759221-76.759221s34.434254-76.759221 76.759221-76.759221 76.759221 34.434254 76.759221 76.759221S354.654392 446.967868 312.328401 446.967868zM312.328401 330.628186c-21.824051 0-39.579437 17.755386-39.579437 39.579437s17.755386 39.579437 39.579437 39.579437 39.579437-17.755386 39.579437-39.579437S334.153476 330.628186 312.328401 330.628186z" p-id="11676"></path></svg>