<?xml version="1.0" standalone="no"?><!DOCTYPE svg PUBLIC "-//W3C//DTD SVG 1.1//EN" "http://www.w3.org/Graphics/SVG/1.1/DTD/svg11.dtd"><svg t="1546312278452" class="icon" style="" viewBox="0 0 1024 1024" version="1.1" xmlns="http://www.w3.org/2000/svg" p-id="10720" xmlns:xlink="http://www.w3.org/1999/xlink" width="200" height="200"><defs><style type="text/css"></style></defs><path d="M512.768 1024H512a65.536 65.536 0 0 1-47.283-20.224c-9.677-10.112-97.434-102.656-184.73-219.904C162.15 625.664 102.4 499.456 102.4 408.909 102.4 183.424 286.157 0 512 0s409.6 183.424 409.6 408.883c0 54.784-21.12 121.907-62.746 199.45-40.166 74.777-100.556 161.638-179.532 258.201l-0.64 0.768-117.53 134.4A64.589 64.589 0 0 1 512.768 1024zM512 600.294c105.728 0 191.744-85.862 191.744-191.41S617.728 217.471 512 217.471s-191.744 85.862-191.744 191.411S406.272 600.294 512 600.294z" p-id="10721"></path></svg>