<?xml version="1.0" standalone="no"?><!DOCTYPE svg PUBLIC "-//W3C//DTD SVG 1.1//EN" "http://www.w3.org/Graphics/SVG/1.1/DTD/svg11.dtd"><svg t="1544856843453" class="icon" style="" viewBox="0 0 1024 1024" version="1.1" xmlns="http://www.w3.org/2000/svg" p-id="2016" xmlns:xlink="http://www.w3.org/1999/xlink" width="200" height="200"><defs><style type="text/css"></style></defs><path d="M960.354779 579.17151c0-29.242399-11.524945-57.108685-31.478582-76.374265L616.326558 183.539056c-70.697799-69.321687-121.613976-119.377793-208.997144-119.377793l-142.083655 0C92.543591 64.161263 63.473207 127.63447 63.473207 270.062154l0 154.296657c0 79.642533 15.48127 103.208466 76.202251 161.865278l352.456912 343.168151c39.391231 38.015118 114.045355 38.015118 153.436587 0.172014l283.651268-274.53452C949.001848 635.936167 960.354779 608.241895 960.354779 579.17151zM410.08164 321.494373c0 56.764656-46.44381 103.036452-103.552495 103.036452S202.97665 378.259029 202.97665 321.494373s46.44381-103.036452 103.552495-103.036452S410.08164 264.729716 410.08164 321.494373z" p-id="2017"></path></svg>