<?xml version="1.0" standalone="no"?><!DOCTYPE svg PUBLIC "-//W3C//DTD SVG 1.1//EN" "http://www.w3.org/Graphics/SVG/1.1/DTD/svg11.dtd"><svg t="1546309166129" class="icon" style="" viewBox="0 0 1024 1024" version="1.1" xmlns="http://www.w3.org/2000/svg" p-id="5722" xmlns:xlink="http://www.w3.org/1999/xlink" width="200" height="200"><defs><style type="text/css"></style></defs><path d="M886.016 958.08l-90.688 0c-68.544 0-116.96-38.304-116.96-124.224l0-103.744c0-69.056 48.416-124.128 116.96-124.128l36.96 0c-10.336-11.744-25.312-19.264-42.08-19.264l-515.808 0c-16.928 0-32.064 7.616-42.368 19.552 67.072 1.472 114.304 55.712 114.304 123.84l0 103.744c0 69.056-48.512 124.224-117.056 124.224l-90.656 0c-68.576 0-124.384-56.224-124.384-125.28l0-101.536c0-69.088 55.808-125.312 124.384-125.312l17.632 0c15.936-50.656 62.656-87.616 118.144-87.616l196.448 0 0-54.336-45.056 0c-68.544 0-120.96-38.4-120.96-107.456l0-166.016c0-69.088 52.384-124.224 120.96-124.224l158.496 0c68.544 0 114.848 55.136 114.848 124.224l0 145.28c0 69.056-46.304 128.224-114.848 128.224l-51.168 0 0 54.368 257.12 0c56.352 0 103.84 38.08 119.04 89.984 57.472 11.008 101.152 61.856 101.152 122.944l0 101.536c0 69.056-55.808 125.28-124.384 125.28z" p-id="5723"></path></svg>
