<?xml version="1.0" standalone="no"?><!DOCTYPE svg PUBLIC "-//W3C//DTD SVG 1.1//EN" "http://www.w3.org/Graphics/SVG/1.1/DTD/svg11.dtd"><svg t="1544763972915" class="icon" style="" viewBox="0 0 1024 1024" version="1.1" xmlns="http://www.w3.org/2000/svg" p-id="2313" xmlns:xlink="http://www.w3.org/1999/xlink" width="200" height="200"><defs><style type="text/css"></style></defs><path d="M913.937279 113.328092c-32.94432-32.946366-76.898391-51.089585-123.763768-51.089585s-90.819448 18.143219-123.763768 51.089585L416.737356 362.999454c-32.946366 32.94432-51.089585 76.898391-51.089585 123.763768s18.143219 90.819448 51.087539 123.763768c25.406646 25.40767 57.58451 42.144866 93.053326 48.403406 1.76418 0.312108 3.51915 0.463558 5.249561 0.463558 14.288424 0 26.951839-10.244318 29.519314-24.802896 2.879584-16.322757-8.016581-31.889291-24.339338-34.768875-23.278169-4.106528-44.38386-15.081487-61.039191-31.736818-21.61018-21.61018-33.509185-50.489928-33.509185-81.322144s11.899004-59.711963 33.509185-81.322144l15.864316-15.864316c-0.267083 1.121544-0.478907 2.267647-0.6191 3.440355-1.955538 16.45988 9.800203 31.386848 26.260084 33.344432 25.863041 3.072989 49.213865 14.378475 67.527976 32.692586 21.608134 21.608134 33.509185 50.489928 33.509185 81.322144s-11.901051 59.71401-33.509185 81.322144L318.53987 871.368764c-21.61018 21.61018-50.489928 33.511231-81.322144 33.511231-30.832216 0-59.711963-11.901051-81.322144-33.511231-21.61018-21.61018-33.509185-50.489928-33.509185-81.322144s11.899004-59.711963 33.509185-81.322144l169.43597-169.438017c11.720949-11.718903 11.720949-30.722722 0-42.441625-11.718903-11.718903-30.722722-11.718903-42.441625 0L113.452935 666.282852c-32.946366 32.94432-51.089585 76.898391-51.089585 123.763768 0 46.865377 18.143219 90.819448 51.089585 123.763768 32.94432 32.946366 76.898391 51.091632 123.763768 51.091632s90.819448-18.145266 123.763768-51.091632l249.673409-249.671363c32.946366-32.94432 51.089585-76.898391 51.089585-123.763768-0.002047-46.865377-18.145266-90.819448-51.089585-123.763768-27.5341-27.536146-64.073294-45.240367-102.885252-49.854455-3.618411-0.428765-7.161097-0.196475-10.508331 0.601704l211.589023-211.589023c21.61018-21.61018 50.489928-33.509185 81.322144-33.509185s59.711963 11.899004 81.322144 33.509185c21.61018 21.61018 33.509185 50.489928 33.509185 81.322144s-11.899004 59.711963-33.509185 81.322144l-150.180418 150.182464c-11.720949 11.718903-11.720949 30.722722 0 42.441625 11.718903 11.718903 30.722722 11.718903 42.441625 0l150.180418-150.182464c32.946366-32.94432 51.089585-76.898391 51.089585-123.763768C965.026864 190.226482 946.882622 146.272411 913.937279 113.328092z" p-id="2314"></path></svg>