<?xml version="1.0" standalone="no"?><!DOCTYPE svg PUBLIC "-//W3C//DTD SVG 1.1//EN" "http://www.w3.org/Graphics/SVG/1.1/DTD/svg11.dtd"><svg t="1546170226289" class="icon" style="" viewBox="0 0 1024 1024" version="1.1" xmlns="http://www.w3.org/2000/svg" p-id="3579" xmlns:xlink="http://www.w3.org/1999/xlink" width="200" height="200"><defs><style type="text/css"></style></defs><path d="M832 300.8h-298.666667L421.12 165.12a42.666667 42.666667 0 0 0-32.853333-15.786667H192A105.386667 105.386667 0 0 0 85.333333 253.013333v517.973334a105.386667 105.386667 0 0 0 106.666667 103.68h640a105.386667 105.386667 0 0 0 106.666667-103.68V404.48a105.386667 105.386667 0 0 0-106.666667-103.68zM597.333333 640h-170.666666a42.666667 42.666667 0 0 1 0-85.333333h170.666666a42.666667 42.666667 0 0 1 0 85.333333z" p-id="3580"></path></svg>
