<?xml version="1.0" standalone="no"?><!DOCTYPE svg PUBLIC "-//W3C//DTD SVG 1.1//EN" "http://www.w3.org/Graphics/SVG/1.1/DTD/svg11.dtd"><svg t="1544857232591" class="icon" style="" viewBox="0 0 1024 1024" version="1.1" xmlns="http://www.w3.org/2000/svg" p-id="3828" xmlns:xlink="http://www.w3.org/1999/xlink" width="200" height="200"><defs><style type="text/css"></style></defs><path d="M877.770752 117.979136 145.767424 117.979136c-48.29184 0-87.442432 39.149568-87.442432 87.442432l0 557.44512c0 45.319168 34.4832 82.593792 78.641152 87.005184 2.894848 0.290816 5.827584 0.437248 8.80128 0.437248l23.360512 0c0 13.395968 0 48.223232 0 48.412672 0 20.891648 19.955712 22.863872 33.73568 13.868032 12.46208-8.141824 25.017344-16.11776 37.818368-23.707648 25.228288-14.949376 54.482944-32.991232 84.23424-38.573056l95.666176 0 457.188352 0c48.289792 0 87.442432-39.149568 87.442432-87.442432l0-557.44512C965.213184 157.128704 926.060544 117.979136 877.770752 117.979136zM243.931136 530.92864c-34.00192 0-61.565952-27.56096-61.565952-61.56288s27.563008-61.565952 61.565952-61.565952 61.56288 27.563008 61.56288 61.565952S277.93408 530.92864 243.931136 530.92864zM514.653184 530.92864c-34.00192 0-61.565952-27.56096-61.565952-61.56288s27.563008-61.565952 61.565952-61.565952c33.999872 0 61.56288 27.563008 61.56288 61.565952S548.653056 530.92864 514.653184 530.92864zM779.606016 530.92864c-34.00192 0-61.568-27.56096-61.568-61.56288s27.56608-61.565952 61.568-61.565952c34.00192 0 61.565952 27.563008 61.565952 61.565952S813.60896 530.92864 779.606016 530.92864z" p-id="3829"></path></svg>